<?xml version="1.0" encoding="utf-8"?>
<!-- Generator: Adobe Illustrator 19.1.0, SVG Export Plug-In . SVG Version: 6.00 Build 0)  -->
<svg version="1.1" id="Layer_1" xmlns="http://www.w3.org/2000/svg" xmlns:xlink="http://www.w3.org/1999/xlink" x="0px" y="0px"
	 viewBox="8 -8 32 32" style="enable-background:new 8 -8 32 32;" xml:space="preserve">
<style type="text/css">
	.st0{fill:#323A61;}
</style>
<g>
	<path class="st0" d="M24-8C15.2-8,8-0.8,8,8s7.2,16,16,16s16-7.2,16-16S32.8-8,24-8z M20,15.8h-4v-14h4V15.8z M18.1,0.9
		c-1,0-1.9-0.8-1.9-1.9c0-1,0.8-1.9,1.9-1.9c1,0,1.9,0.8,1.9,1.9S19.2,0.9,18.1,0.9z M34,15.8h-4V7.1c0-1-0.3-1.7-1.5-1.7
		c-2.1,0-2.5,1.7-2.5,1.7v8.7h-4v-14h4v1.3c0.6-0.4,2-1.3,4-1.3c1.3,0,4,0.8,4,5.5V15.8z"/>
</g>
</svg>
