<?xml version="1.0" encoding="utf-8"?>
<!-- Generator: Adobe Illustrator 19.1.0, SVG Export Plug-In . SVG Version: 6.00 Build 0)  -->
<svg version="1.1" id="Layer_1" xmlns="http://www.w3.org/2000/svg" xmlns:xlink="http://www.w3.org/1999/xlink" x="0px" y="0px"
	 viewBox="-289 381 32 32" style="enable-background:new -289 381 32 32;" xml:space="preserve">
<style type="text/css">
	.st0{fill:#999999;}
</style>
<g>
	<path class="st0" d="M-273,381c-8.8,0-16,7.2-16,16s7.2,16,16,16s16-7.2,16-16C-257,388.2-264.2,381-273,381z M-277,404.8h-4v-14h4
		V404.8z M-278.9,389.9c-1,0-1.9-0.8-1.9-1.9c0-1,0.8-1.9,1.9-1.9c1,0,1.9,0.8,1.9,1.9C-277,389.1-277.8,389.9-278.9,389.9z
		 M-263,404.8h-4v-8.7c0-1-0.3-1.7-1.5-1.7c-2.1,0-2.5,1.7-2.5,1.7v8.7h-4v-14h4v1.3c0.6-0.4,2-1.3,4-1.3c1.3,0,4,0.8,4,5.5V404.8z"
		/>
</g>
</svg>
