<?xml version="1.0" encoding="utf-8"?>
<!-- Generator: Adobe Illustrator 19.1.0, SVG Export Plug-In . SVG Version: 6.00 Build 0)  -->
<svg version="1.1" id="Layer_1" xmlns="http://www.w3.org/2000/svg" xmlns:xlink="http://www.w3.org/1999/xlink" x="0px" y="0px"
	 viewBox="8 -8 32 32" style="enable-background:new 8 -8 32 32;" xml:space="preserve">
<style type="text/css">
	.st0{fill:#999999;}
</style>
<g>
	<path class="st0" d="M32,24c1.1,0,2-0.9,2-2V-6c0-1.1-0.9-2-2-2H18c-1.1,0-2,0.9-2,2v28c0,1.1,0.9,2,2,2H32z M24,20.9
		c0-0.6,0.5-1.1,1.1-1.1s1.1,0.5,1.1,1.1S25.7,22,25.1,22S24,21.5,24,20.9z M29-6c0.6,0,1,0.4,1,1s-0.4,1-1,1h-2c-0.6,0-1-0.4-1-1
		s0.4-1,1-1H29z M24-5c0,0.6-0.4,1-1,1s-1-0.4-1-1s0.4-1,1-1S24-5.6,24-5z M18-2h14v20H18V-2z"/>
</g>
</svg>
