<?xml version="1.0" encoding="utf-8"?>
<!-- Generator: Adobe Illustrator 19.1.0, SVG Export Plug-In . SVG Version: 6.00 Build 0)  -->
<svg version="1.1" id="Layer_1" xmlns="http://www.w3.org/2000/svg" xmlns:xlink="http://www.w3.org/1999/xlink" x="0px" y="0px"
	 viewBox="8 -8 32 32" style="enable-background:new 8 -8 32 32;" xml:space="preserve">
<style type="text/css">
	.st0{fill:#323A61;}
</style>
<g>
	<path class="st0" d="M24-8C15.2-8,8-0.8,8,8s7.2,16,16,16s16-7.2,16-16S32.8-8,24-8z M32,4.4c0,0.2,0,0.3,0,0.5
		c0,5.2-4,11.2-11.2,11.2c-2.2,0-4.3-0.7-6-1.8c0.3,0,0.6,0.1,0.9,0.1c1.8,0,3.5-0.6,4.9-1.7c-1.7,0-3.2-1.2-3.7-2.7
		c0.2,0,0.5,0.1,0.7,0.1c0.4,0,0.7,0,1-0.1c-1.8-0.4-3.2-2-3.2-3.9l0,0c0.5,0.3,1.1,0.5,1.8,0.5c-1.1-0.7-1.8-1.9-1.8-3.3
		c0-0.7,0.2-1.4,0.5-2c1.9,2.4,4.8,4,8.1,4.1c-0.1-0.3-0.1-0.6-0.1-0.9c0-2.2,1.8-3.9,3.9-3.9c1.1,0,2.2,0.5,2.9,1.2
		c0.9-0.2,1.7-0.5,2.5-1c-0.3,0.9-0.9,1.7-1.7,2.2c0.8-0.1,1.6-0.3,2.3-0.6C33.4,3.2,32.7,3.9,32,4.4z"/>
</g>
</svg>
